<svg width="180" height="40" viewBox="0 0 270 50" fill="none" xmlns="http://www.w3.org/2000/svg">
<path d="M87.6085 13.8154H69.5614V20.6244H85.8525V27.482H69.5614V34.3883H88.1455V41.246H60.8792V6.95776H87.6085V13.8154Z" fill="#5232C0"/>
<path d="M109.022 33.9449L110.681 39.8237C108.632 41.0318 106.291 41.6359 103.656 41.6359C101.055 41.6359 98.9494 40.9095 97.34 39.457C95.7302 38.0035 94.9254 35.9374 94.9254 33.2593V21.6019H91.267V16.0669H94.9254V8.71887H103.316V16.0179H110.193V21.6019H103.316V31.9367C103.316 32.9496 103.519 33.6927 103.925 34.1659C104.332 34.6395 104.941 34.8598 105.755 34.8272C106.535 34.8272 107.624 34.5332 109.022 33.9449Z" fill="#5232C0"/>
<path d="M132.432 14.4496C135.326 14.4496 137.651 15.3723 139.407 17.2178C141.163 19.0626 142.042 21.5197 142.042 24.5888V41.2433H133.603V26.9403C133.603 25.406 133.188 24.1899 132.359 23.2919C131.53 22.3931 130.4 21.9439 128.97 21.9439C127.344 21.9439 126.043 22.5319 125.067 23.7075C124.091 24.8831 123.604 26.3856 123.604 28.2136V41.2433H115.166V4.89807H123.604V19.2014C125.457 16.0987 128.4 14.5147 132.432 14.4496Z" fill="#5232C0"/>
<path d="M156.68 12.672C153.569 14.2937 149.776 12.8707 148.278 9.49499C148.273 9.48334 148.276 9.47478 148.287 9.46929L153.937 6.5277C153.938 6.52633 153.941 6.52564 153.944 6.52564C153.947 6.5253 153.949 6.52564 153.952 6.52667C153.955 6.5277 153.956 6.52907 153.959 6.53112C153.96 6.53284 153.963 6.53524 153.963 6.53798L156.686 12.6511C156.691 12.6607 156.689 12.6675 156.68 12.672Z" fill="#4DF2CE"/>
<path d="M147.991 14.8406H156.38V41.242H147.991V14.8406Z" fill="#5232C0"/>
<path d="M174.623 14.5476C177.224 14.5476 179.541 15.0623 181.573 16.0912C183.605 17.1198 185.191 18.5809 186.329 20.4753L180.281 24.1491C178.98 22.3201 177.208 21.4053 174.964 21.4053C173.338 21.4053 172.012 22.0176 170.988 23.2422C169.963 24.4668 169.452 26.0751 169.452 28.0676C169.452 30.0923 169.956 31.7168 170.963 32.9414C171.971 34.166 173.306 34.7783 174.964 34.7783C177.434 34.7783 179.224 33.7825 180.329 31.7901L186.476 35.4152C185.402 37.3741 183.833 38.8842 181.769 39.9457C179.703 41.0068 177.289 41.5372 174.526 41.5372C170.461 41.5372 167.185 40.3051 164.696 37.8401C162.209 35.3745 160.966 32.1334 160.966 28.1163C160.966 24.0669 162.225 20.793 164.746 18.2947C167.266 15.7965 170.558 14.5476 174.623 14.5476Z" fill="#5232C0"/>
<path d="M202.083 14.5476C206.636 14.5476 210.058 15.9521 212.351 18.7604C214.643 21.569 215.644 25.4224 215.351 30.3212H196.865C197.287 31.8881 198.035 33.0959 199.109 33.945C200.182 34.7944 201.499 35.2182 203.058 35.2182C205.466 35.2182 207.563 34.3205 209.35 32.5247L213.79 36.8842C210.961 39.9864 207.14 41.5372 202.328 41.5372C198.068 41.5372 194.679 40.313 192.158 37.8645C189.638 35.4152 188.378 32.166 188.378 28.1163C188.378 24.0344 189.638 20.7522 192.158 18.2704C194.679 15.7887 197.986 14.5476 202.083 14.5476ZM196.719 25.7647H207.253C207.253 24.1656 206.79 22.8762 205.864 21.8966C204.938 20.9163 203.71 20.4263 202.182 20.4263C200.751 20.4263 199.548 20.9077 198.571 21.8709C197.597 22.8344 196.978 24.1324 196.719 25.7647Z" fill="#5232C0"/>
<path d="M237.154 14.45C240.049 14.45 242.374 15.3727 244.13 17.2182C245.885 19.0629 246.763 21.52 246.763 24.5891V41.2435H238.375V26.9406C238.375 25.4063 237.959 24.1902 237.13 23.2922C236.301 22.3934 235.171 21.9442 233.739 21.9442C232.245 21.9442 231.018 22.4342 230.057 23.4145C229.097 24.3941 228.537 25.6838 228.375 27.284V41.2435H219.936V14.8423H228.375V19.1527C230.227 16.0826 233.155 14.5151 237.154 14.45Z" fill="#5232C0"/>
<mask id="mask0_20_2" style="mask-type:luminance" maskUnits="userSpaceOnUse" x="250" y="8" width="20" height="34">
<path d="M250.255 8.68225H269.798V41.6637H250.255V8.68225Z" fill="white"/>
</mask>
<g mask="url(#mask0_20_2)">
<path d="M268.077 33.9449L269.736 39.8237C267.686 41.0318 265.345 41.6359 262.71 41.6359C260.11 41.6359 258.004 40.9095 256.394 39.457C254.784 38.0035 253.98 35.9374 253.98 33.2593V21.6019H250.32V16.0669H253.98V8.71887H262.37V16.0179H269.247V21.6019H262.37V31.9367C262.37 32.9496 262.573 33.6927 262.979 34.1659C263.386 34.6395 263.996 34.8598 264.809 34.8272C265.589 34.8272 266.679 34.5332 268.077 33.9449Z" fill="#5232C0"/>
</g>
<mask id="mask1_20_2" style="mask-type:luminance" maskUnits="userSpaceOnUse" x="0" y="0" width="44" height="44">
<path d="M0 0.44104H43.332V43.773H0V0.44104Z" fill="white"/>
</mask>
<g mask="url(#mask1_20_2)">
<mask id="mask2_20_2" style="mask-type:luminance" maskUnits="userSpaceOnUse" x="-9" y="-9" width="67" height="68">
<path d="M-8.94604 14.7502L34.9835 -8.42859L57.8861 34.977L13.9565 58.1561L-8.94604 14.7502Z" fill="white"/>
</mask>
<g mask="url(#mask2_20_2)">
<mask id="mask3_20_2" style="mask-type:luminance" maskUnits="userSpaceOnUse" x="-9" y="-9" width="67" height="68">
<path d="M-8.94604 14.7502L34.9835 -8.42859L57.8861 34.977L13.9565 58.1561L-8.94604 14.7502Z" fill="white"/>
</mask>
<g mask="url(#mask3_20_2)">
<mask id="mask4_20_2" style="mask-type:luminance" maskUnits="userSpaceOnUse" x="-7" y="-1" width="60" height="60">
<path d="M-6.40234 19.5857L31.7244 -0.531616L52.0751 38.0381L13.9487 58.1551L-6.40234 19.5857Z" fill="white"/>
</mask>
<g mask="url(#mask4_20_2)">
<mask id="mask5_20_2" style="mask-type:luminance" maskUnits="userSpaceOnUse" x="-7" y="-1" width="60" height="60">
<path d="M-6.40234 19.5856L31.7243 -0.531616L52.0691 38.0269L13.9428 58.1438L-6.40234 19.5856Z" fill="white"/>
</mask>
<g mask="url(#mask5_20_2)">
<path d="M16.5292 27.1402C16.5158 27.1474 16.5014 27.155 16.5014 27.155L3.94424 33.5477C2.63294 34.2213 1.01189 33.696 0.351618 32.3768C-0.314824 31.0793 0.202568 29.4795 1.49194 28.7993C1.50633 28.7918 1.52038 28.7842 1.52038 28.7842L14.0776 22.3916C15.3885 21.7176 17.0096 22.2425 17.6699 23.5617C18.3366 24.8596 17.8189 26.4601 16.5292 27.1402ZM41.8403 43.4236C40.9991 43.8674 39.9489 43.8471 39.1005 43.291L27.3773 35.4733C26.1541 34.6486 25.8196 32.9963 26.6358 31.7587C27.4595 30.5348 29.1111 30.2014 30.3491 31.019L42.0719 38.8363C43.2952 39.6611 43.6299 41.314 42.8134 42.5513C42.5592 42.9182 42.2186 43.2239 41.8403 43.4236ZM28.2908 14.8925L32.6276 12.5145L33.3331 3.39237C33.4352 1.9214 32.3432 0.633065 30.8661 0.516224C29.3962 0.413431 28.1085 1.50475 27.9923 2.98291L26.9579 16.5094C26.96 16.5807 26.9613 16.6513 26.9558 16.7081C27.1025 15.9673 27.5692 15.2906 28.2908 14.8925Z" fill="#4DF2CE"/>
</g>
</g>
</g>
</g>
</g>
<mask id="mask6_20_2" style="mask-type:luminance" maskUnits="userSpaceOnUse" x="0" y="7" width="45" height="43">
<path d="M0.354736 7.80835H44.6517V50H0.354736V7.80835Z" fill="white"/>
</mask>
<g mask="url(#mask6_20_2)">
<mask id="mask7_20_2" style="mask-type:luminance" maskUnits="userSpaceOnUse" x="-9" y="-9" width="67" height="68">
<path d="M-8.94604 14.7502L34.9835 -8.42859L57.8861 34.977L13.9565 58.1561L-8.94604 14.7502Z" fill="white"/>
</mask>
<g mask="url(#mask7_20_2)">
<mask id="mask8_20_2" style="mask-type:luminance" maskUnits="userSpaceOnUse" x="-9" y="-9" width="67" height="68">
<path d="M-8.94604 14.7502L34.9835 -8.42859L57.8861 34.977L13.9565 58.1561L-8.94604 14.7502Z" fill="white"/>
</mask>
<g mask="url(#mask8_20_2)">
<mask id="mask9_20_2" style="mask-type:luminance" maskUnits="userSpaceOnUse" x="-1" y="-4" width="59" height="60">
<path d="M-0.647705 16.5512L37.6188 -3.63977L57.9699 34.9296L19.703 55.1206L-0.647705 16.5512Z" fill="white"/>
</mask>
<g mask="url(#mask9_20_2)">
<mask id="mask10_20_2" style="mask-type:luminance" maskUnits="userSpaceOnUse" x="-1" y="-4" width="59" height="60">
<path d="M-0.648193 16.5617L37.5357 -3.58569L57.8809 34.9726L19.6966 55.12L-0.648193 16.5617Z" fill="white"/>
</mask>
<g mask="url(#mask10_20_2)">
<path d="M30.8301 19.602C29.5407 20.2825 27.9416 19.799 27.233 18.5237C26.5306 17.2264 26.9983 15.5992 28.2942 14.8982L40.6452 8.14775C41.9695 7.43094 43.5686 7.91441 44.2707 9.21097C44.9728 10.5082 44.5054 12.1351 43.2092 12.8372L30.8582 19.5873C30.8445 19.5948 30.8445 19.5948 30.8301 19.602ZM9.65669 24.6423L14.0809 22.3973C14.8032 22.0337 15.6043 22.0238 16.2913 22.3068C16.255 22.2722 16.2122 22.2592 16.1759 22.2243L4.42621 15.4423C3.14095 14.7042 1.50516 15.137 0.768132 16.4226C0.0304165 17.7082 0.463863 19.344 1.74912 20.082L9.65669 24.6423ZM27.3807 35.4791C26.7328 35.0323 26.3281 34.3669 26.2205 33.6531C26.2136 33.6744 26.214 33.7097 26.2215 33.7241L26.068 47.2883C26.0577 48.7638 27.2406 49.9866 28.7156 49.9976C29.1618 49.9949 29.6065 49.8863 29.9848 49.6865C30.826 49.2428 31.402 48.3646 31.4225 47.35L31.5257 38.2408L27.3807 35.4791Z" fill="#5232C0"/>
</g>
</g>
</g>
</g>
</g>
<mask id="mask11_20_2" style="mask-type:luminance" maskUnits="userSpaceOnUse" x="4" y="0" width="46" height="43">
<path d="M4.47388 0H49.1218V42.2794H4.47388V0Z" fill="white"/>
</mask>
<g mask="url(#mask11_20_2)">
<mask id="mask12_20_2" style="mask-type:luminance" maskUnits="userSpaceOnUse" x="-9" y="-9" width="67" height="68">
<path d="M-8.94604 14.7502L34.9835 -8.42859L57.8861 34.977L13.9565 58.1561L-8.94604 14.7502Z" fill="white"/>
</mask>
<g mask="url(#mask12_20_2)">
<mask id="mask13_20_2" style="mask-type:luminance" maskUnits="userSpaceOnUse" x="-9" y="-9" width="67" height="68">
<path d="M-8.94604 14.7502L34.9835 -8.42859L57.8861 34.977L13.9565 58.1561L-8.94604 14.7502Z" fill="white"/>
</mask>
<g mask="url(#mask13_20_2)">
<mask id="mask14_20_2" style="mask-type:luminance" maskUnits="userSpaceOnUse" x="-9" y="-9" width="60" height="53">
<path d="M-8.77051 15.1011L35.2432 -8.12219L50.1178 20.0687L6.10404 43.2916L-8.77051 15.1011Z" fill="white"/>
</mask>
<g mask="url(#mask14_20_2)">
<mask id="mask15_20_2" style="mask-type:luminance" maskUnits="userSpaceOnUse" x="-9" y="-9" width="60" height="53">
<path d="M-8.77051 15.1068L35.1606 -8.07275L50.0351 20.118L6.10402 43.2975L-8.77051 15.1068Z" fill="white"/>
</mask>
<g mask="url(#mask15_20_2)">
<path d="M21.4619 19.1991C21.0829 19.3989 20.6392 19.5078 20.1924 19.5102C18.7169 19.5 17.5341 18.2771 17.5444 16.8016L17.7079 2.71177C17.7181 1.23634 18.9397 0.0538741 20.4147 0.0641534C21.8898 0.075118 23.0723 1.29767 23.0623 2.77378L22.8989 16.863C22.8787 17.8779 22.3027 18.7554 21.4619 19.1991ZM16.8303 32.5982C16.8975 31.8091 17.2802 31.1416 17.8518 30.6965C17.8374 30.7037 17.8233 30.7113 17.8233 30.7113C17.8233 30.7113 17.8096 30.7185 17.7952 30.726L5.88564 37.2253C4.58942 37.9274 4.1224 39.5542 4.82413 40.8515C5.53306 42.1272 7.13183 42.6099 8.4212 41.9294C8.4212 41.9294 8.43559 41.9219 8.44964 41.9147L16.4504 37.5501L16.8303 32.5982ZM45.1615 16.5015L33.074 22.6646C33.074 22.6646 33.0603 22.6718 33.0459 22.6794C33.0459 22.6794 33.0459 22.6794 33.0319 22.6869C33.7079 22.4734 34.4963 22.5416 35.1645 22.9243L39.4664 25.4058L47.5853 21.2649C47.5853 21.2649 47.599 21.2577 47.6131 21.2502C48.9024 20.57 49.4205 18.9699 48.7534 17.6726C48.0938 16.3531 46.4728 15.8278 45.1615 16.5015Z" fill="#4CF1CD"/>
</g>
</g>
</g>
</g>
</g>
<mask id="mask16_20_2" style="mask-type:luminance" maskUnits="userSpaceOnUse" x="5" y="6" width="44" height="44">
<path d="M5.78784 6.31409H48.7692V49.5585H5.78784V6.31409Z" fill="white"/>
</mask>
<g mask="url(#mask16_20_2)">
<mask id="mask17_20_2" style="mask-type:luminance" maskUnits="userSpaceOnUse" x="-9" y="-9" width="67" height="68">
<path d="M-8.94604 14.7502L34.9835 -8.42859L57.8861 34.977L13.9565 58.1561L-8.94604 14.7502Z" fill="white"/>
</mask>
<g mask="url(#mask17_20_2)">
<mask id="mask18_20_2" style="mask-type:luminance" maskUnits="userSpaceOnUse" x="-9" y="-9" width="67" height="68">
<path d="M-8.94604 14.7502L34.9835 -8.42859L57.8861 34.977L13.9565 58.1561L-8.94604 14.7502Z" fill="white"/>
</mask>
<g mask="url(#mask18_20_2)">
<path d="M19.6656 49.2258C19.2315 49.455 18.7374 49.5718 18.2118 49.5269C16.7347 49.4101 15.6423 48.1211 15.7444 46.6511L16.8241 32.5984C16.9399 31.1202 18.2272 30.0285 19.6979 30.1317C21.175 30.2489 22.267 31.5372 22.1645 33.0078L21.0856 47.0603C21.0143 48.0118 20.4506 48.8115 19.6656 49.2258ZM47.2792 34.6559C46.4946 35.0698 45.5163 35.0839 44.6902 34.6056L32.4812 27.5643C31.1956 26.8259 30.7625 25.1901 31.4998 23.9045C32.2372 22.6189 33.8726 22.1861 35.1582 22.9245L47.3673 29.9658C48.6525 30.7039 49.086 32.34 48.3486 33.6259C48.0889 34.0851 47.714 34.4264 47.2792 34.6559ZM17.5382 16.8019L17.5988 11.8569L9.99215 6.77992C8.75487 5.96272 7.10299 6.29646 6.27927 7.51969C5.4631 8.75731 5.79718 10.4095 7.02075 11.2346L18.305 18.7638C18.3622 18.8053 18.4198 18.8468 18.4842 18.8663C17.8986 18.3684 17.5282 17.6317 17.5382 16.8019Z" fill="#5232C0"/>
</g>
</g>
</g>
</svg>
